# xmcd CD database file
#
# Track frame offsets:
#	150
#	17934
#	39599
#	57525
#	80736
#	97723
#	114592
#	141625
#	159893
#	182778
#	202656
#	226731
#	250610
#	271902
#
# Disc length: 3844 seconds
#
# Revision: 0
# Processed by: cddbd v1.5PL3 Copyright (c) Steve Scherf et al.
# Submitted via: CDex 1.51
#
DISCID=b30f020e
DTITLE=Bruniferd - Pas Sages, Secrets
DYEAR=1997
DGENRE=Jazz
TTITLE0=Le roi du volant
TTITLE1=La P.Q.R.
TTITLE2=L'abbaye troglodyte de Saint-Romans
TTITLE3=A.L.T.
TTITLE4=Z.I. Molina la chazotte
TTITLE5=Un atterissage
TTITLE6=Thibaud
TTITLE7=Marina 2000
TTITLE8=Le 11 et le 12
TTITLE9=Le Groupe "Barricades" au petit festival
TTITLE10=Comment
TTITLE11=Le silo a blé
TTITLE12=Le climat
TTITLE13=Appelle la mortadelle
EXTD=YEAR: 1997
EXTT0=
EXTT1=
EXTT2=
EXTT3=
EXTT4=
EXTT5=
EXTT6=
EXTT7=
EXTT8=
EXTT9=
EXTT10=
EXTT11=
EXTT12=
EXTT13=
PLAYORDER=
